<svg width="23" height="27" viewBox="0 0 23 27" fill="none" xmlns="http://www.w3.org/2000/svg">
<g filter="url(#filter0_d_12_80)">
<path d="M6.90249 15.5442C6.65249 15.3775 6.43749 15.165 6.18583 14.8642C6.0552 14.7043 5.92575 14.5434 5.79749 14.3817C5.41166 13.9025 5.16833 13.6817 4.91666 13.5908C4.70858 13.5161 4.53869 13.3618 4.44437 13.1619C4.35006 12.9619 4.33904 12.7327 4.41374 12.5246C4.48845 12.3165 4.64275 12.1466 4.84271 12.0523C5.04267 11.958 5.27191 11.947 5.47999 12.0217C6.10666 12.2467 6.53083 12.6342 7.10249 13.345C7.02416 13.2475 7.38583 13.7008 7.46333 13.7942C7.62166 13.9833 7.73833 14.0983 7.82999 14.1592C7.99999 14.2733 8.31916 14.3225 8.78833 14.2758C8.80749 13.9575 8.86666 13.6483 8.95666 13.3633C6.48333 12.7583 5.08333 11.1633 5.08333 8.03333C5.08333 7 5.39166 6.07 5.96499 5.29C5.78333 4.545 5.81083 3.64417 6.21666 2.63C6.26272 2.51528 6.33372 2.41224 6.42452 2.32836C6.51533 2.24447 6.62366 2.18184 6.74166 2.145C6.80916 2.125 6.84749 2.11583 6.91499 2.10583C7.58416 2.00333 8.52916 2.2475 9.76083 3.01917C10.4948 2.84757 11.2462 2.76144 12 2.7625C12.76 2.7625 13.515 2.84917 14.2367 3.01917C15.4675 2.24167 16.4142 1.9975 17.0883 2.10583C17.1592 2.11667 17.2192 2.13083 17.27 2.1475C17.3857 2.18565 17.4916 2.24869 17.5803 2.3322C17.669 2.41571 17.7383 2.51765 17.7833 2.63083C18.1892 3.64417 18.2167 4.545 18.035 5.28917C18.6108 6.06917 18.9167 6.99333 18.9167 8.03333C18.9167 11.1642 17.5217 12.7542 15.0483 13.36C15.1525 13.7058 15.2067 14.0925 15.2067 14.51C15.2067 15.2645 15.2034 16.0189 15.1967 16.7733C15.3838 16.8142 15.5512 16.9182 15.6706 17.068C15.79 17.2177 15.8542 17.4041 15.8523 17.5956C15.8505 17.7871 15.7827 17.9722 15.6604 18.1196C15.5381 18.267 15.3687 18.3678 15.1808 18.405C14.2317 18.595 13.5283 17.9617 13.5283 17.1342L13.53 16.7625L13.5342 16.175C13.5383 15.585 13.54 15.06 13.54 14.51C13.54 13.9292 13.3875 13.55 13.1858 13.3767C12.635 12.9017 12.9142 11.9975 13.6358 11.9167C16.1083 11.6392 17.25 10.6817 17.25 8.03333C17.25 7.2375 16.99 6.58 16.4892 6.03C16.3836 5.91437 16.3128 5.77136 16.2848 5.61734C16.2568 5.46333 16.2728 5.30454 16.3308 5.15917C16.4692 4.81417 16.5283 4.36167 16.4108 3.81417L16.4025 3.81667C15.9933 3.9325 15.4775 4.18333 14.8542 4.6075C14.7536 4.67571 14.6394 4.72112 14.5195 4.74056C14.3996 4.75999 14.2769 4.75297 14.16 4.72C13.4566 4.52524 12.7299 4.42739 12 4.42917C11.2583 4.42917 10.5233 4.52833 9.83999 4.72083C9.72351 4.75355 9.6013 4.7605 9.48186 4.74122C9.36241 4.72194 9.2486 4.67687 9.14833 4.60917C8.52166 4.18667 8.00333 3.93667 7.59166 3.82C7.47166 4.36417 7.53083 4.815 7.66833 5.15917C7.7265 5.30446 7.74258 5.4632 7.71473 5.61722C7.68687 5.77123 7.61621 5.91428 7.51083 6.03C7.01333 6.575 6.74999 7.245 6.74999 8.03333C6.74999 10.6767 7.89249 11.64 10.3517 11.9167C11.0725 11.9975 11.3525 12.8975 10.805 13.3733C10.645 13.5133 10.4475 13.9833 10.4475 14.51V17.135C10.4475 17.9567 9.75166 18.5725 8.81416 18.4083C8.62397 18.3749 8.45127 18.2765 8.32559 18.1299C8.19991 17.9833 8.12905 17.7976 8.12511 17.6045C8.12118 17.4115 8.18441 17.223 8.30401 17.0714C8.42361 16.9198 8.59215 16.8144 8.78083 16.7733V15.9483C8.02249 15.9992 7.39583 15.875 6.90249 15.5442V15.5442Z" fill="#262626"/>
</g>
<defs>
<filter id="filter0_d_12_80" x="-2" y="0" width="28" height="28" filterUnits="userSpaceOnUse" color-interpolation-filters="sRGB">
<feFlood flood-opacity="0" result="BackgroundImageFix"/>
<feColorMatrix in="SourceAlpha" type="matrix" values="0 0 0 0 0 0 0 0 0 0 0 0 0 0 0 0 0 0 127 0" result="hardAlpha"/>
<feOffset dy="4"/>
<feGaussianBlur stdDeviation="2"/>
<feComposite in2="hardAlpha" operator="out"/>
<feColorMatrix type="matrix" values="0 0 0 0 0 0 0 0 0 0 0 0 0 0 0 0 0 0 0.25 0"/>
<feBlend mode="normal" in2="BackgroundImageFix" result="effect1_dropShadow_12_80"/>
<feBlend mode="normal" in="SourceGraphic" in2="effect1_dropShadow_12_80" result="shape"/>
</filter>
</defs>
</svg>
