<svg width="20" height="20" viewBox="0 0 20 20" fill="none" xmlns="http://www.w3.org/2000/svg">
<path d="M4.90249 15.5442C4.65249 15.3775 4.43749 15.165 4.18583 14.8642C4.0552 14.7043 3.92575 14.5434 3.79749 14.3817C3.41166 13.9025 3.16833 13.6817 2.91666 13.5908C2.70858 13.5161 2.53869 13.3618 2.44437 13.1619C2.35006 12.9619 2.33904 12.7327 2.41374 12.5246C2.48845 12.3165 2.64275 12.1466 2.84271 12.0523C3.04267 11.958 3.27191 11.947 3.47999 12.0217C4.10666 12.2467 4.53083 12.6342 5.10249 13.345C5.02416 13.2475 5.38583 13.7008 5.46333 13.7942C5.62166 13.9833 5.73833 14.0983 5.82999 14.1592C5.99999 14.2733 6.31916 14.3225 6.78833 14.2758C6.80749 13.9575 6.86666 13.6483 6.95666 13.3633C4.48333 12.7583 3.08333 11.1633 3.08333 8.03333C3.08333 7 3.39166 6.07 3.96499 5.29C3.78333 4.545 3.81083 3.64417 4.21666 2.63C4.26272 2.51528 4.33372 2.41224 4.42452 2.32836C4.51533 2.24447 4.62366 2.18184 4.74166 2.145C4.80916 2.125 4.84749 2.11583 4.91499 2.10583C5.58416 2.00333 6.52916 2.2475 7.76083 3.01917C8.49482 2.84757 9.24621 2.76144 9.99999 2.7625C10.76 2.7625 11.515 2.84917 12.2367 3.01917C13.4675 2.24167 14.4142 1.9975 15.0883 2.10583C15.1592 2.11667 15.2192 2.13083 15.27 2.1475C15.3857 2.18565 15.4916 2.24869 15.5803 2.3322C15.669 2.41571 15.7383 2.51765 15.7833 2.63083C16.1892 3.64417 16.2167 4.545 16.035 5.28917C16.6108 6.06917 16.9167 6.99333 16.9167 8.03333C16.9167 11.1642 15.5217 12.7542 13.0483 13.36C13.1525 13.7058 13.2067 14.0925 13.2067 14.51C13.2067 15.2645 13.2034 16.0189 13.1967 16.7733C13.3838 16.8142 13.5512 16.9182 13.6706 17.068C13.79 17.2177 13.8542 17.4041 13.8523 17.5956C13.8505 17.7871 13.7827 17.9722 13.6604 18.1196C13.5381 18.267 13.3687 18.3678 13.1808 18.405C12.2317 18.595 11.5283 17.9617 11.5283 17.1342L11.53 16.7625L11.5342 16.175C11.5383 15.585 11.54 15.06 11.54 14.51C11.54 13.9292 11.3875 13.55 11.1858 13.3767C10.635 12.9017 10.9142 11.9975 11.6358 11.9167C14.1083 11.6392 15.25 10.6817 15.25 8.03333C15.25 7.2375 14.99 6.58 14.4892 6.03C14.3836 5.91437 14.3128 5.77136 14.2848 5.61734C14.2568 5.46333 14.2728 5.30454 14.3308 5.15917C14.4692 4.81417 14.5283 4.36167 14.4108 3.81417L14.4025 3.81667C13.9933 3.9325 13.4775 4.18333 12.8542 4.6075C12.7536 4.67571 12.6394 4.72112 12.5195 4.74056C12.3996 4.75999 12.2769 4.75297 12.16 4.72C11.4566 4.52524 10.7299 4.42739 9.99999 4.42917C9.25833 4.42917 8.52333 4.52833 7.83999 4.72083C7.72351 4.75355 7.6013 4.7605 7.48186 4.74122C7.36241 4.72194 7.2486 4.67687 7.14833 4.60917C6.52166 4.18667 6.00333 3.93667 5.59166 3.82C5.47166 4.36417 5.53083 4.815 5.66833 5.15917C5.7265 5.30446 5.74258 5.4632 5.71473 5.61722C5.68687 5.77123 5.61621 5.91428 5.51083 6.03C5.01333 6.575 4.74999 7.245 4.74999 8.03333C4.74999 10.6767 5.89249 11.64 8.35166 11.9167C9.0725 11.9975 9.35249 12.8975 8.80499 13.3733C8.64499 13.5133 8.44749 13.9833 8.44749 14.51V17.135C8.44749 17.9567 7.75166 18.5725 6.81416 18.4083C6.62397 18.3749 6.45127 18.2765 6.32559 18.1299C6.19991 17.9833 6.12905 17.7976 6.12511 17.6045C6.12118 17.4115 6.18441 17.223 6.30401 17.0714C6.42361 16.9198 6.59215 16.8144 6.78083 16.7733V15.9483C6.02249 15.9992 5.39583 15.875 4.90249 15.5442V15.5442Z" fill="#F2F2F2"/>
</svg>
