<svg width="20" height="20" viewBox="0 0 20 20" fill="none" xmlns="http://www.w3.org/2000/svg">
<path d="M10 20C4.478 20 0 15.522 0 10C0 4.478 4.478 0 10 0C15.522 0 20 4.478 20 10C20 15.522 15.522 20 10 20Z" fill="#262626"/>
<path d="M3.68402 7.746H6.34202V16.3H3.68402V7.746ZM5.01402 3.494C5.86402 3.494 6.55402 4.184 6.55402 5.036C6.55402 5.888 5.86402 6.578 5.01402 6.578C4.16202 6.578 3.47202 5.888 3.47202 5.036C3.47002 4.186 4.16002 3.494 5.01402 3.494Z" fill="#F2F2F2"/>
<path d="M8.01001 7.746H10.56V8.914H10.596C10.95 8.242 11.816 7.532 13.112 7.532C15.804 7.532 16.302 9.304 16.302 11.606V16.3H13.644V12.142C13.644 11.148 13.626 9.874 12.262 9.874C10.878 9.874 10.666 10.954 10.666 12.07V16.302H8.01001V7.746Z" fill="#F2F2F2"/>
</svg>
