<svg width="21" height="17" viewBox="0 0 21 17" fill="none" xmlns="http://www.w3.org/2000/svg">
<path d="M6.91462 16.383C14.4626 16.383 18.5952 10.2275 18.5952 4.88783C18.5952 4.71457 18.5952 4.53816 18.5824 4.3649C19.3858 3.79155 20.0804 3.08589 20.631 2.27313C19.882 2.60076 19.0881 2.81497 18.2751 2.90948C19.1329 2.40544 19.7731 1.61158 20.0804 0.675964C19.2738 1.14535 18.3935 1.47927 17.4748 1.65569C15.9191 0.0301668 13.3199 -0.0485893 11.6681 1.47927C10.6022 2.46529 10.1509 3.93646 10.4806 5.33832C7.1803 5.1745 4.10413 3.64034 2.02026 1.117C0.931908 2.96303 1.48569 5.32257 3.29106 6.5102C2.63806 6.4913 1.99785 6.31804 1.42807 6.00616C1.42807 6.02192 1.42807 6.04082 1.42807 6.05657C1.42807 7.97821 2.80451 9.63523 4.72192 10.0164C4.11693 10.1771 3.48313 10.2023 2.86853 10.0857C3.4063 11.7301 4.94599 12.8579 6.70335 12.8926C5.25009 14.0172 3.45432 14.6283 1.60732 14.6252C1.28082 14.6252 0.954316 14.6063 0.631012 14.5653C2.50041 15.753 4.68671 16.383 6.91462 16.3799" fill="#F2F2F2"/>
</svg>
