<svg width="20" height="20" viewBox="0 0 20 20" fill="none" xmlns="http://www.w3.org/2000/svg">
<path fill-rule="evenodd" clip-rule="evenodd" d="M17.0874 2.90712C15.2084 1.03438 12.705 0.00301568 10.0409 0C4.5522 0 0.0818305 4.44511 0.0818305 9.90953C0.0818305 11.6556 0.539475 13.3625 1.41233 14.8643L0 20L5.27959 18.6218C6.73435 19.4119 8.37096 19.8281 10.0379 19.8281H10.0409C15.5296 19.8281 19.997 15.383 20 9.91858C20.003 7.27081 18.9695 4.77986 17.0874 2.90712ZM10.0439 18.1544H10.0409C8.55584 18.1544 7.09804 17.7563 5.82815 17.0054L5.52508 16.8275L2.39127 17.6448L3.22776 14.6049L3.03076 14.2943C2.20336 12.9825 1.7639 11.4686 1.7639 9.90953C1.76693 5.36791 5.47962 1.6737 10.047 1.6737C12.2594 1.6737 14.3355 2.53317 15.8994 4.08926C17.4632 5.64536 18.324 7.71713 18.321 9.91556C18.321 14.4602 14.6052 18.1544 10.0439 18.1544ZM14.584 11.9843C14.3355 11.8607 13.1111 11.2606 12.8838 11.1791C12.6565 11.0977 12.4898 11.0555 12.3231 11.3028C12.1564 11.5501 11.6806 12.108 11.5351 12.2738C11.3896 12.4397 11.2441 12.4608 10.9956 12.3372C10.7471 12.2135 9.94393 11.9511 8.9953 11.1068C8.25579 10.4493 7.75572 9.63812 7.61024 9.39083C7.46477 9.14355 7.59509 9.00784 7.71935 8.8842C7.83149 8.77262 7.96787 8.59469 8.09213 8.44994C8.21639 8.30519 8.25882 8.20265 8.34065 8.03679C8.42249 7.87093 8.38309 7.72618 8.31944 7.60253C8.25579 7.47889 7.75875 6.26055 7.55266 5.76297C7.3496 5.28046 7.14653 5.3468 6.99197 5.33776C6.84649 5.33172 6.6798 5.32871 6.51614 5.32871C6.34944 5.32871 6.07971 5.39204 5.8524 5.63932C5.62509 5.88661 4.98257 6.48673 4.98257 7.70507C4.98257 8.9234 5.87362 10.1025 5.99788 10.2654C6.12214 10.4312 7.75269 12.9312 10.25 14.0048C10.8441 14.2612 11.3078 14.4119 11.6684 14.5265C12.2655 14.7165 12.808 14.6894 13.2353 14.6261C13.7142 14.5537 14.7083 14.0259 14.9144 13.4499C15.1205 12.8709 15.1205 12.3764 15.0599 12.2738C14.9992 12.1713 14.8325 12.111 14.584 11.9843Z" fill="#F2F2F2"/>
</svg>
