<svg width="21" height="21" viewBox="0 0 21 21" fill="none" xmlns="http://www.w3.org/2000/svg">
<path d="M10.758 2.56266C13.4264 2.56266 13.7428 2.57144 14.7972 2.62125C15.7726 2.66519 16.3028 2.82924 16.6543 2.96693C17.12 3.14856 17.454 3.36535 17.8025 3.71397C18.1511 4.06258 18.3678 4.39655 18.5494 4.86235C18.6871 5.21389 18.8482 5.74414 18.8951 6.71968C18.9419 7.77432 18.9537 8.09071 18.9537 10.7595C18.9537 13.4283 18.9449 13.7447 18.8951 14.7994C18.8511 15.7749 18.6871 16.3051 18.5494 16.6567C18.3678 17.1225 18.1511 17.4565 17.8025 17.8051C17.454 18.1537 17.12 18.3705 16.6543 18.5521C16.3028 18.6898 15.7726 18.8509 14.7972 18.8978C13.7428 18.9447 13.4264 18.9564 10.758 18.9564C8.08957 18.9564 7.77323 18.9476 6.71875 18.8978C5.74335 18.8539 5.21318 18.6898 4.86169 18.5521C4.39596 18.3705 4.06204 18.1537 3.71347 17.8051C3.36491 17.4565 3.14815 17.1225 2.96655 16.6567C2.82888 16.3051 2.66778 15.7749 2.62091 14.7994C2.57405 13.7447 2.56233 13.4283 2.56233 10.7595C2.56233 8.09071 2.57112 7.77432 2.62091 6.71968C2.66485 5.74414 2.82888 5.21389 2.96655 4.86235C3.14815 4.39655 3.36491 4.06258 3.71347 3.71397C4.06204 3.36535 4.39596 3.14856 4.86169 2.96693C5.21318 2.82924 5.74335 2.66812 6.71875 2.62125C7.77323 2.57144 8.08957 2.56266 10.758 2.56266ZM10.758 0.760986C8.04271 0.760986 7.70293 0.772704 6.63673 0.822506C5.57346 0.872309 4.84704 1.03929 4.20849 1.2883C3.55237 1.54025 2.99291 1.883 2.43931 2.43962C1.88278 2.99623 1.543 3.55284 1.28524 4.21199C1.03919 4.8477 0.869302 5.57423 0.819507 6.64058C0.769712 7.70694 0.757996 8.04676 0.757996 10.7625C0.757996 13.4781 0.769712 13.818 0.819507 14.8843C0.869302 15.9477 1.03626 16.6743 1.28524 17.3129C1.54007 17.9662 1.88278 18.5257 2.43931 19.0794C2.99584 19.636 3.55237 19.9759 4.21142 20.2337C4.84704 20.4797 5.57346 20.6497 6.63966 20.6995C7.70586 20.7493 8.04564 20.761 10.7609 20.761C13.4762 20.761 13.816 20.7493 14.8822 20.6995C15.9455 20.6497 16.6719 20.4827 17.3104 20.2337C17.9636 19.9788 18.5231 19.636 19.0767 19.0794C19.6332 18.5228 19.973 17.9662 20.2308 17.3071C20.4768 16.6713 20.6467 15.9448 20.6965 14.8785C20.7463 13.8121 20.758 13.4723 20.758 10.7566C20.758 8.0409 20.7463 7.70108 20.6965 6.63472C20.6467 5.5713 20.4797 4.84477 20.2308 4.20613C19.9759 3.55284 19.6332 2.9933 19.0767 2.43962C18.5202 1.883 17.9636 1.54317 17.3046 1.28537C16.669 1.03929 15.9425 0.869379 14.8763 0.819577C13.8131 0.772704 13.4733 0.760986 10.758 0.760986Z" fill="#F2F2F2"/>
<path d="M10.758 5.62404C7.92262 5.62404 5.62326 7.92373 5.62326 10.7595C5.62326 13.5953 7.92262 15.895 10.758 15.895C13.5934 15.895 15.8927 13.5953 15.8927 10.7595C15.8927 7.92373 13.5934 5.62404 10.758 5.62404ZM10.758 14.0934C8.91852 14.0934 7.42467 12.6022 7.42467 10.7595C7.42467 8.91685 8.91852 7.42571 10.758 7.42571C12.5975 7.42571 14.0913 8.91685 14.0913 10.7595C14.0913 12.6022 12.5975 14.0934 10.758 14.0934Z" fill="#F2F2F2"/>
<path d="M16.0948 6.62304C16.7581 6.62304 17.2958 6.08527 17.2958 5.42192C17.2958 4.75857 16.7581 4.22081 16.0948 4.22081C15.4316 4.22081 14.8939 4.75857 14.8939 5.42192C14.8939 6.08527 15.4316 6.62304 16.0948 6.62304Z" fill="#F2F2F2"/>
</svg>
