<svg width="21" height="22" viewBox="0 0 21 22" fill="none" xmlns="http://www.w3.org/2000/svg">
<path d="M15.7401 6.7142C15.7038 6.66004 15.664 6.6004 15.6414 6.56201C15.9787 5.47067 15.6524 4.53837 15.5434 4.23126C15.5338 4.20247 15.5255 4.18122 15.5221 4.16751C15.5164 4.13906 15.5047 4.11215 15.4878 4.08854C15.4709 4.06494 15.4493 4.04517 15.4242 4.03053C15.3992 4.0159 15.3713 4.00674 15.3424 4.00364C15.3136 4.00055 15.2844 4.00359 15.2568 4.01258C15.168 4.04071 15.0757 4.05594 14.9826 4.05782C14.6762 4.07702 14.3286 4.09895 12.913 4.95585H12.9021C12.2495 4.7786 11.5772 4.68417 10.901 4.67479C10.237 4.68367 9.57675 4.7758 8.93567 4.94899L8.89454 4.95516L8.63815 4.80161C7.49677 4.10512 7.14236 4.0777 6.82976 4.05303C6.73442 4.04928 6.63986 4.03433 6.54801 4.00847C6.52072 4.00038 6.49204 3.99805 6.4638 4.00163C6.43556 4.0052 6.40836 4.0146 6.38394 4.02923C6.35952 4.04385 6.3384 4.06339 6.32192 4.0866C6.30544 4.10982 6.29396 4.1362 6.2882 4.16408C6.28409 4.17779 6.27655 4.19904 6.26627 4.22783C6.1559 4.53768 5.82342 5.46107 6.16618 6.56613C5.25033 7.67392 4.97475 9.40484 5.4978 10.7958C5.87826 11.8035 6.80645 13.0669 9.06249 13.5029C8.8822 13.7442 8.6882 14.0225 8.60388 14.4975C8.33584 14.5784 8.12813 14.5894 7.94098 14.5346C7.70928 14.466 7.5331 14.3118 7.36789 14.0348C6.82976 13.1306 6.01263 12.6343 5.18521 12.7049C5.13133 12.7103 5.08175 12.7367 5.04723 12.7784C5.0127 12.8201 4.99602 12.8738 5.0008 12.9277L5.09472 13.9868C5.10011 14.0436 5.12707 14.0962 5.17005 14.1337C5.21303 14.1711 5.26875 14.1907 5.32574 14.1884C5.59994 14.1753 5.90569 14.4845 6.09009 14.7957C6.44587 15.3949 6.92779 15.7877 7.52213 15.9611C7.85349 16.0604 8.20239 16.0868 8.54492 16.0386V18.538C8.54484 18.5841 8.56028 18.6289 8.58875 18.6652C8.61722 18.7015 8.65708 18.7272 8.70191 18.7381C10.1511 19.0873 11.6626 19.0873 13.1118 18.7381C13.1568 18.7273 13.1968 18.7017 13.2254 18.6654C13.254 18.6291 13.2695 18.5842 13.2695 18.538V15.0398C13.2695 14.2048 13.0063 13.8463 12.7478 13.5035C15.0039 13.0669 15.932 11.8035 16.3125 10.7951C17.0865 8.7351 16.1062 7.26672 15.7401 6.7142ZM15.9245 10.6504C15.5646 11.6026 14.6536 12.8098 12.3557 13.1526C12.3215 13.1576 12.289 13.1711 12.2614 13.192C12.2338 13.2129 12.212 13.2404 12.1978 13.272C12.1837 13.3035 12.1777 13.3382 12.1805 13.3727C12.1833 13.4072 12.1948 13.4404 12.2138 13.4693C12.2789 13.568 12.3454 13.6564 12.4092 13.7435C12.6491 14.0622 12.8561 14.3371 12.8548 15.0418V18.3789C11.5696 18.6627 10.238 18.6627 8.95281 18.3789V15.7959C8.95282 15.7651 8.94591 15.7347 8.9326 15.7069C8.91929 15.6792 8.89991 15.6547 8.87589 15.6354C8.85187 15.6162 8.82383 15.6025 8.79384 15.5955C8.76384 15.5885 8.73266 15.5884 8.70259 15.595C8.35053 15.6809 7.98201 15.6719 7.63456 15.569C7.14236 15.4237 6.74339 15.0926 6.4397 14.586C6.23405 14.2343 5.88306 13.8675 5.48615 13.7908L5.42582 13.1121C6.02359 13.1484 6.60491 13.5591 7.01279 14.2453C7.23216 14.6134 7.49266 14.8307 7.82376 14.9308C8.12127 15.0178 8.44895 14.9918 8.85203 14.8485C8.88836 14.836 8.92045 14.8136 8.94468 14.7838C8.96891 14.754 8.98431 14.718 8.98914 14.6799C9.04878 14.2 9.22907 13.9628 9.41964 13.7092C9.47654 13.6338 9.53549 13.5556 9.59102 13.4706C9.61303 13.437 9.6247 13.3977 9.62461 13.3575C9.62515 13.3078 9.60767 13.2596 9.57541 13.2218C9.54315 13.184 9.49828 13.1592 9.44912 13.1519C7.15058 12.8091 6.23953 11.6019 5.88032 10.6497C5.40046 9.38428 5.65821 7.80348 6.50071 6.80537C6.53736 6.76405 6.56349 6.71448 6.57685 6.66089C6.59022 6.6073 6.59044 6.55127 6.57749 6.49757C6.27381 5.58035 6.50894 4.78378 6.62548 4.44583C6.68649 4.45474 6.7427 4.45885 6.79754 4.46296C7.06421 4.48421 7.36652 4.50752 8.42564 5.14848L8.68477 5.30409C8.72312 5.3338 8.7679 5.35412 8.81552 5.3634C8.86314 5.37269 8.91227 5.37069 8.95897 5.35756C8.96858 5.3547 8.97846 5.35286 8.98845 5.35208C9.00143 5.35142 9.01431 5.34935 9.02684 5.34591C9.63821 5.18105 10.2679 5.09376 10.901 5.0861C11.5455 5.09696 12.1861 5.18909 12.8075 5.3603C12.8185 5.36308 12.8297 5.36514 12.8411 5.36647L12.9247 5.3747C12.9639 5.37866 13.0034 5.37128 13.0385 5.35345C13.0684 5.34159 13.0972 5.32737 13.1249 5.31095C14.4548 4.50478 14.7619 4.48833 15.008 4.4705C15.0642 4.46708 15.1204 4.46365 15.1848 4.45405C15.3014 4.80024 15.5276 5.60023 15.2294 6.50374C15.1876 6.63262 15.2534 6.73133 15.398 6.94796C15.7634 7.49431 16.6272 8.78788 15.9245 10.6504Z" fill="#262626" stroke="#262626" stroke-width="0.75"/>
<path d="M10 21H13" stroke="#262626" stroke-linecap="round"/>
<path d="M10.2312 21H3.38107C2.75088 20.9986 2.14681 20.7445 1.70071 20.2931C1.25461 19.8417 1.00271 19.2297 1 18.5906V3.4146C1.00136 2.77463 1.25266 2.16127 1.6989 1.70874C2.14515 1.25622 2.74999 1.00138 3.38107 1H18.0789" stroke="#262626" stroke-linecap="round" stroke-linejoin="round"/>
<path d="M20.46 3.41461V18.5802C20.46 19.2211 20.2093 19.8358 19.7629 20.2894C19.3165 20.7431 18.7109 20.9986 18.0789 21H13.4505" stroke="#262626" stroke-linecap="round" stroke-linejoin="round"/>
<path d="M20.5 1.67795C20.5 1.68284 20.4991 1.68609 20.4981 1.68847C20.497 1.69116 20.4953 1.69363 20.4934 1.69564C20.4914 1.69764 20.4897 1.69859 20.4888 1.69896C20.4883 1.69918 20.4876 1.69946 20.4857 1.69946C20.4839 1.69946 20.4832 1.69918 20.4827 1.69896C20.4818 1.69859 20.4801 1.69764 20.4781 1.69564C20.4761 1.69363 20.4745 1.69116 20.4733 1.68847C20.4724 1.68609 20.4715 1.68284 20.4715 1.67795C20.4715 1.67306 20.4724 1.6698 20.4733 1.66742C20.4745 1.66473 20.4761 1.66226 20.4781 1.66025C20.4801 1.65825 20.4818 1.6573 20.4827 1.65693C20.4832 1.65671 20.4839 1.65643 20.4857 1.65643C20.4876 1.65643 20.4883 1.65671 20.4888 1.65693C20.4897 1.6573 20.4914 1.65825 20.4934 1.66025C20.4953 1.66226 20.497 1.66473 20.4981 1.66742C20.4991 1.6698 20.5 1.67306 20.5 1.67795Z" fill="#262626" stroke="#262626"/>
</svg>
