<svg width="71" height="20" viewBox="0 0 71 20" fill="none" xmlns="http://www.w3.org/2000/svg">
<circle cx="10" cy="10" r="10" fill="#262626"/>
<path d="M31 20L22.3397 5L39.6603 5L31 20Z" fill="#262626"/>
<rect x="44" y="5" width="3" height="15" fill="#262626"/>
<path fill-rule="evenodd" clip-rule="evenodd" d="M66.1629 14H70.1679C68.6248 17.5318 65.1006 20 61 20C56.8994 20 53.3752 17.5318 51.8321 14H55.8371C56.8826 15.1974 58.8034 16 61 16C63.1966 16 65.1174 15.1974 66.1629 14ZM61 0C66.5229 0 71 4.47716 71 10H51C51 4.47716 55.4771 0 61 0Z" fill="#262626"/>
</svg>
