<svg width="21" height="22" viewBox="0 0 21 22" fill="none" xmlns="http://www.w3.org/2000/svg">
<rect width="20" height="20" transform="translate(1 1)" fill="#F2F2F2"/>
<path d="M20.4599 3.41649V18.5939C20.4558 19.2317 20.204 19.8421 19.759 20.2926C19.3141 20.7431 18.7119 20.9973 18.0833 21H3.37654C2.74708 20.9973 2.14417 20.7423 1.69906 20.2907C1.25396 19.8391 1.00271 19.2274 1 18.5887V3.41649C1.00136 2.77602 1.25272 2.16218 1.69908 1.7093C2.14544 1.25642 2.75044 1.00138 3.38169 1H18.0833" stroke="#262626" stroke-linecap="round" stroke-linejoin="round"/>
<path d="M20.5 1.67849C20.5 1.68347 20.4991 1.68681 20.4981 1.68926C20.4969 1.69202 20.4952 1.69454 20.4932 1.69657C20.4912 1.69859 20.4895 1.69955 20.4886 1.69992C20.4881 1.70014 20.4875 1.70041 20.4856 1.70041C20.4837 1.70041 20.4831 1.70014 20.4825 1.69992C20.4817 1.69955 20.48 1.69859 20.478 1.69657C20.476 1.69454 20.4743 1.69202 20.4731 1.68926C20.4721 1.68681 20.4712 1.68347 20.4712 1.67849C20.4712 1.67351 20.4721 1.67017 20.4731 1.66772C20.4743 1.66496 20.476 1.66245 20.478 1.66042C20.48 1.65839 20.4817 1.65744 20.4825 1.65706C20.4831 1.65684 20.4837 1.65657 20.4856 1.65657C20.4875 1.65657 20.4881 1.65684 20.4886 1.65706C20.4895 1.65744 20.4912 1.65839 20.4932 1.66042C20.4952 1.66245 20.4969 1.66496 20.4981 1.66772C20.4991 1.67017 20.5 1.67351 20.5 1.67849Z" fill="#262626" stroke="#262626"/>
<path d="M9.39508 9.03758H11.9671V9.89353H12.0185C12.3478 9.37161 12.893 8.84969 14.2356 8.84969C15.8971 8.84969 17.1369 9.96138 17.1369 12.3831V17.263H14.6163V12.7067C14.6163 11.6628 14.251 10.9217 13.3406 10.9217C13.0551 10.9241 12.7777 11.0183 12.5484 11.1909C12.3192 11.3635 12.1498 11.6055 12.0648 11.882C12.0092 12.0893 11.9901 12.3048 12.0082 12.5188V17.2683H9.48767V11.0835" stroke="#262626" stroke-linecap="round" stroke-linejoin="round"/>
<path d="M7.48147 11.1253V17.3361H4.96603V9.03757H7.48147" stroke="#262626" stroke-linecap="round" stroke-linejoin="round"/>
<path d="M7.64608 6.25575C7.64812 6.54212 7.56629 6.82265 7.41096 7.06177C7.25564 7.30089 7.03382 7.48781 6.77364 7.59884C6.51346 7.70986 6.22664 7.73999 5.94956 7.68539C5.67249 7.63079 5.41763 7.49393 5.21733 7.29216C5.01702 7.0904 4.88029 6.83282 4.82447 6.55209C4.76865 6.27137 4.79626 5.98015 4.9038 5.71537C5.01134 5.45059 5.19396 5.22418 5.4285 5.06486C5.66304 4.90553 5.93893 4.82047 6.22119 4.82047" stroke="#262626" stroke-linecap="round" stroke-linejoin="round"/>
</svg>
