<svg width="21" height="22" viewBox="0 0 21 22" fill="none" xmlns="http://www.w3.org/2000/svg">
<path d="M20.4599 3.41523V18.5848C20.4585 19.224 20.2079 19.8367 19.7626 20.2892C19.3174 20.7417 18.7137 20.9972 18.0833 21H3.37654C2.74708 20.9973 2.14417 20.7425 1.69906 20.2911C1.25396 19.8397 1.00271 19.2283 1 18.59V3.41523C1.00135 2.776 1.25201 2.16326 1.69726 1.71076C2.14251 1.25826 2.74619 1.00275 3.37654 1H18.0833" stroke="#262626" stroke-linecap="round" stroke-linejoin="round"/>
<path d="M20.5 1.67814C20.5 1.68305 20.4991 1.68632 20.4981 1.68872C20.497 1.69143 20.4953 1.69391 20.4933 1.69593C20.4913 1.69794 20.4896 1.6989 20.4887 1.69928C20.4882 1.69951 20.4875 1.69979 20.4856 1.69979C20.4837 1.69979 20.483 1.69951 20.4825 1.69928C20.4816 1.6989 20.4799 1.69794 20.4779 1.69593C20.4759 1.69391 20.4742 1.69143 20.4731 1.68872C20.4721 1.68632 20.4712 1.68305 20.4712 1.67814C20.4712 1.67323 20.4721 1.66996 20.4731 1.66757C20.4742 1.66486 20.4759 1.66237 20.4779 1.66035C20.4799 1.65834 20.4816 1.65738 20.4825 1.657C20.483 1.65677 20.4837 1.65649 20.4856 1.65649C20.4875 1.65649 20.4882 1.65677 20.4887 1.657C20.4896 1.65738 20.4913 1.65834 20.4933 1.66035C20.4953 1.66237 20.497 1.66486 20.4981 1.66757C20.4991 1.66996 20.5 1.67323 20.5 1.67814Z" fill="#262626" stroke="#262626"/>
<path d="M10.1255 9.07512L9.12242 8.05791L8.67489 8.51174C8.37899 8.81204 8.21277 9.21919 8.21277 9.64372C8.21277 10.0682 8.37899 10.4754 8.67489 10.7757L11.1337 13.2692C11.4299 13.5692 11.8314 13.7378 12.25 13.7378C12.6686 13.7378 13.0701 13.5692 13.3662 13.2692L13.8138 12.8153L13.0576 12.0433" stroke="#262626" stroke-linecap="round" stroke-linejoin="round"/>
<path d="M16.8642 11C16.8643 12.0434 16.5937 13.0685 16.0796 13.9724C15.5654 14.8762 14.8258 15.6269 13.935 16.1492C13.0442 16.6714 12.0336 16.9468 11.0047 16.9476C9.97571 16.9484 8.96466 16.6747 8.07305 16.1539L6.74074 16.5138L5.1358 16.9468L5.56276 15.3192L5.9177 13.9682C5.46914 13.178 5.20577 12.2937 5.14794 11.3838C5.09012 10.4739 5.23939 9.56275 5.58422 8.72068C5.92905 7.87862 6.4602 7.12824 7.13662 6.52755C7.81303 5.92686 8.6166 5.49195 9.48521 5.25642C10.3538 5.0209 11.2642 4.99107 12.146 5.16925C13.0278 5.34743 13.8573 5.72884 14.5706 6.284C15.2838 6.83917 15.8616 7.55321 16.2593 8.37095C16.657 9.18868 16.864 10.0882 16.8642 11V11Z" stroke="#262626" stroke-linecap="round" stroke-linejoin="round"/>
</svg>
