<svg width="21" height="22" viewBox="0 0 21 22" fill="none" xmlns="http://www.w3.org/2000/svg">
<path d="M10.2312 21H3.38107C2.75088 20.9986 2.14681 20.7445 1.70071 20.2931C1.25461 19.8417 1.00271 19.2297 1 18.5906V3.4146C1.00136 2.77463 1.25266 2.16127 1.6989 1.70874C2.14515 1.25622 2.74999 1.00138 3.38107 1H18.0789" stroke="#F2F2F2" stroke-linecap="round" stroke-linejoin="round"/>
<path d="M20.46 3.41461V18.5802C20.46 19.2211 20.2093 19.8358 19.7629 20.2894C19.3165 20.7431 18.7109 20.9986 18.0789 21H13.4505" stroke="#F2F2F2" stroke-linecap="round" stroke-linejoin="round"/>
<path d="M20.5 1.67795C20.5 1.68284 20.4991 1.68609 20.4981 1.68847C20.497 1.69116 20.4953 1.69363 20.4934 1.69564C20.4914 1.69764 20.4897 1.69859 20.4888 1.69896C20.4883 1.69918 20.4876 1.69946 20.4857 1.69946C20.4839 1.69946 20.4832 1.69918 20.4827 1.69896C20.4818 1.69859 20.4801 1.69764 20.4781 1.69564C20.4761 1.69363 20.4745 1.69116 20.4733 1.68847C20.4724 1.68609 20.4715 1.68284 20.4715 1.67795C20.4715 1.67306 20.4724 1.6698 20.4733 1.66742C20.4745 1.66473 20.4761 1.66226 20.4781 1.66025C20.4801 1.65825 20.4818 1.6573 20.4827 1.65693C20.4832 1.65671 20.4839 1.65643 20.4857 1.65643C20.4876 1.65643 20.4883 1.65671 20.4888 1.65693C20.4897 1.6573 20.4914 1.65825 20.4934 1.66025C20.4953 1.66226 20.497 1.66473 20.4981 1.66742C20.4991 1.6698 20.5 1.67306 20.5 1.67795Z" fill="#F2F2F2" stroke="#F2F2F2"/>
<path d="M10.2311 21V14.4863H7.96835V11.3885H10.2311V8.40025C10.2311 7.57037 10.5562 6.77448 11.1349 6.18766C11.7136 5.60085 12.4984 5.27118 13.3168 5.27118H16.5207V8.21772H14.1756C14.0746 8.21769 13.9746 8.23818 13.8815 8.27801C13.7884 8.31783 13.7041 8.37617 13.6336 8.44959C13.5632 8.523 13.5079 8.60999 13.4712 8.70542C13.4344 8.80086 13.4169 8.90279 13.4196 9.00521V11.3729H16.5053V14.5019H13.4196V21" stroke="#F2F2F2" stroke-linecap="round" stroke-linejoin="round"/>
</svg>
