<svg width="21" height="22" viewBox="0 0 21 22" fill="none" xmlns="http://www.w3.org/2000/svg">
<path d="M20.4599 3.41523V18.5848C20.4585 19.224 20.2079 19.8367 19.7626 20.2892C19.3174 20.7417 18.7137 20.9972 18.0833 21H3.37654C2.74708 20.9973 2.14417 20.7425 1.69906 20.2911C1.25396 19.8397 1.00271 19.2283 1 18.59V3.41523C1.00135 2.776 1.25201 2.16326 1.69726 1.71076C2.14251 1.25826 2.74619 1.00275 3.37654 1H18.0833" stroke="#F2F2F2" stroke-linecap="round" stroke-linejoin="round"/>
<path d="M20.4856 2.19979C20.7697 2.19979 21 1.96624 21 1.67814C21 1.39004 20.7697 1.15649 20.4856 1.15649C20.2015 1.15649 19.9712 1.39004 19.9712 1.67814C19.9712 1.96624 20.2015 2.19979 20.4856 2.19979Z" fill="#F2F2F2"/>
<path d="M14.6307 7.34846C14.6307 7.35337 14.6298 7.35664 14.6288 7.35904C14.6277 7.36175 14.626 7.36423 14.624 7.36625C14.622 7.36826 14.6203 7.36922 14.6194 7.3696C14.6189 7.36983 14.6182 7.37011 14.6163 7.37011C14.6144 7.37011 14.6137 7.36983 14.6131 7.3696C14.6123 7.36922 14.6105 7.36826 14.6086 7.36625C14.6066 7.36423 14.6049 7.36175 14.6038 7.35904C14.6028 7.35664 14.6019 7.35337 14.6019 7.34846C14.6019 7.34355 14.6028 7.34028 14.6038 7.33789C14.6049 7.33518 14.6066 7.33269 14.6086 7.33067C14.6105 7.32866 14.6123 7.3277 14.6131 7.32732C14.6137 7.32709 14.6144 7.32681 14.6163 7.32681C14.6182 7.32681 14.6189 7.32709 14.6194 7.32732C14.6203 7.3277 14.622 7.32866 14.624 7.33067C14.626 7.33269 14.6277 7.33518 14.6288 7.33789C14.6298 7.34028 14.6307 7.34355 14.6307 7.34846Z" fill="#F2F2F2" stroke="#F2F2F2"/>
<path d="M6.76649 4.90717C6.28113 4.94402 5.82745 5.16557 5.49641 5.52739C5.16537 5.88921 4.98145 6.36456 4.98151 6.85813V15.1419C4.98286 15.6617 5.18708 16.1598 5.54951 16.5273C5.91194 16.8948 6.40311 17.1019 6.91566 17.1033H11.3344" stroke="#F2F2F2" stroke-linecap="round" stroke-linejoin="round"/>
<path d="M11.3344 17.1033H15.0844C15.5969 17.1019 16.0881 16.8948 16.4505 16.5273C16.8129 16.1598 17.0172 15.6617 17.0185 15.1419V6.85811C17.0172 6.33834 16.8129 5.84025 16.4505 5.47272C16.0881 5.10518 15.5969 4.89809 15.0844 4.89671H6.91563C6.86604 4.89136 6.81603 4.89136 6.76645 4.89671" stroke="#F2F2F2" stroke-linecap="round" stroke-linejoin="round"/>
<path d="M12.0288 8.2561C11.45 8.03352 10.8163 8.00447 10.2201 8.17321C9.6239 8.34194 9.09656 8.69961 8.71512 9.19394C8.33368 9.68828 8.11814 10.2934 8.1 10.9208C8.08186 11.5482 8.26207 12.1651 8.61429 12.6812C8.96651 13.1974 9.47229 13.5857 10.0577 13.7896C10.6431 13.9935 11.2775 14.0021 11.8681 13.8143C12.4587 13.6265 12.9746 13.2521 13.3404 12.7457C13.7062 12.2394 13.9027 11.6277 13.9012 11" stroke="#F2F2F2" stroke-linecap="round" stroke-linejoin="round"/>
</svg>
