<svg width="30" height="30" viewBox="0 0 30 30" fill="none" xmlns="http://www.w3.org/2000/svg">
<ellipse rx="8.54668" ry="8.54668" transform="matrix(0.716434 -0.697654 0.716434 0.697654 15.0054 14.9189)" fill="#F2F2F2"/>
<path d="M4.82143 5.56166C4.61956 4.82803 5.30895 4.15672 6.06233 4.35329L8.24424 4.92261C8.99762 5.11918 9.24995 6.03622 8.69844 6.57328L7.10117 8.12867C6.54966 8.66573 5.60794 8.42001 5.40607 7.68638L4.82143 5.56166Z" fill="#F2F2F2"/>
<path d="M21.3339 6.59433C20.7793 6.05421 21.0384 5.11257 21.7961 4.91488L23.9772 4.34577C24.722 4.15143 25.3923 4.82405 25.1892 5.56203L24.6048 7.68598C24.4017 8.42396 23.4759 8.68011 22.9306 8.14917L21.3339 6.59433Z" fill="#F2F2F2"/>
<path d="M21.9119 24.2743C21.1543 24.0766 20.8952 23.135 21.4498 22.5949L23.0465 21.04C23.5917 20.5091 24.5176 20.7652 24.7207 21.5032L25.3051 23.6272C25.5081 24.3651 24.8379 25.0378 24.0931 24.8434L21.9119 24.2743Z" fill="#F2F2F2"/>
<path d="M6.06234 25.4846C5.30896 25.6811 4.61957 25.0098 4.82144 24.2762L5.40608 22.1515C5.60795 21.4179 6.54967 21.1721 7.10118 21.7092L8.69845 23.2646C9.24996 23.8016 8.99763 24.7187 8.24425 24.9153L6.06234 25.4846Z" fill="#F2F2F2"/>
<path d="M14.0141 1.45082C14.4015 0.797478 15.3471 0.797477 15.7345 1.45082L16.8634 3.35487C17.2586 4.02147 16.7781 4.86487 16.0032 4.86487L13.7454 4.86487C12.9704 4.86487 12.49 4.02147 12.8852 3.35487L14.0141 1.45082Z" fill="#F2F2F2"/>
<path d="M12.9862 26.6299C12.5949 25.97 13.0899 25.1351 13.8724 25.1351L16.131 25.1351C16.9058 25.1351 17.3824 25.9552 16.9911 26.6152L15.8618 28.5199C15.4705 29.1799 14.5029 29.1881 14.1155 28.5347L12.9862 26.6299Z" fill="#F2F2F2"/>
<path d="M25.0042 12.9638C25.0042 12.2068 25.8357 11.7393 26.5089 12.1178L28.4649 13.2175C29.1449 13.5998 29.1534 14.5566 28.4801 14.9351L26.5241 16.0348C25.8508 16.4133 25.0042 15.9278 25.0042 15.1632L25.0042 12.9638Z" fill="#F2F2F2"/>
<path d="M1.55044 15.3561C0.870535 14.9738 0.870535 13.995 1.55044 13.6127L3.50575 12.5134C4.17235 12.1386 4.99582 12.6204 4.99582 13.3851V15.5837C4.99582 16.3484 4.17235 16.8302 3.50575 16.4554L1.55044 15.3561Z" fill="#F2F2F2"/>
</svg>
