<svg width="27" height="26" viewBox="0 0 27 26" fill="none" xmlns="http://www.w3.org/2000/svg">
<path d="M24.9255 0.883881C24.4373 0.395721 23.6459 0.395721 23.1577 0.883881L13.4047 10.6369L3.65166 0.883881C3.1635 0.395721 2.37204 0.395721 1.88388 0.883881C1.39572 1.37204 1.39572 2.16348 1.88388 2.65164L11.6369 12.4047L0.883881 23.1577C0.395721 23.6459 0.395721 24.4374 0.883881 24.9255C1.37204 25.4137 2.16348 25.4137 2.65164 24.9255L13.4047 14.1725L24.1577 24.9255C24.6459 25.4137 25.4374 25.4137 25.9255 24.9255C26.4137 24.4373 26.4137 23.6459 25.9255 23.1577L15.1725 12.4047L24.9255 2.65166C25.4137 2.1635 25.4137 1.37204 24.9255 0.883881Z" fill="#F2F2F2"/>
</svg>
